<svg id="Layer_1" data-name="Layer 1" xmlns="http://www.w3.org/2000/svg" viewBox="0 0 18.01 35.02"><defs><style>.cls-1{fill:none;stroke:#fff;stroke-miterlimit:10;}</style></defs><title>lightbulb</title><path class="cls-1" d="M15.17,3.38a8.64,8.64,0,0,0-6-2.67,8.62,8.62,0,0,0-6,2.67C0,6.63.7,11.18.83,11.94c.41,2.42,1.3,2.07,2.44,5.7S4,23.31,5.49,24.42c1.11.81,2.83.68,3.7.68s2.58.13,3.7-.68c1.5-1.11,1-3,2.21-6.78s2-3.28,2.44-5.7C17.67,11.18,18.35,6.63,15.17,3.38Z" transform="translate(-0.18 -0.21)"/><path class="cls-1" d="M13,26.71c0-.69-1.66-1.24-3.72-1.24S5.57,26,5.57,26.71,7.24,28,9.29,28,13,27.4,13,26.71Z" transform="translate(-0.18 -0.21)"/><path class="cls-1" d="M5.57,29.2c0,.68,1.67,1.24,3.72,1.24S13,29.88,13,29.2,11.35,28,9.29,28,5.57,28.51,5.57,29.2Z" transform="translate(-0.18 -0.21)"/><path class="cls-1" d="M9.19,30.44c-2.06,0-3.72.56-3.72,1.24s1.66,1.25,3.72,1.25,3.72-.56,3.72-1.25S11.24,30.44,9.19,30.44Z" transform="translate(-0.18 -0.21)"/><path class="cls-1" d="M9.17,34.72a2.15,2.15,0,0,0,2.18-1.79L7.2,33A2.14,2.14,0,0,0,9.17,34.72Z" transform="translate(-0.18 -0.21)"/></svg>